<svg id="visual" viewBox="0 0 900 450" width="900" height="450" xmlns="http://www.w3.org/2000/svg" xmlns:xlink="http://www.w3.org/1999/xlink" version="1.1"><rect x="0" y="0" width="900" height="450" fill="#FFFFFF"></rect><path d="M0 295L129 272L257 289L386 325L514 280L643 292L771 286L900 319L900 451L771 451L643 451L514 451L386 451L257 451L129 451L0 451Z" fill="#2e2e2e"></path><path d="M0 325L129 353L257 337L386 354L514 356L643 360L771 352L900 310L900 451L771 451L643 451L514 451L386 451L257 451L129 451L0 451Z" fill="#2b2b2b"></path><path d="M0 334L129 379L257 343L386 341L514 363L643 340L771 378L900 336L900 451L771 451L643 451L514 451L386 451L257 451L129 451L0 451Z" fill="#292929"></path><path d="M0 389L129 366L257 386L386 396L514 380L643 370L771 382L900 366L900 451L771 451L643 451L514 451L386 451L257 451L129 451L0 451Z" fill="#262626"></path><path d="M0 423L129 395L257 393L386 399L514 404L643 411L771 405L900 427L900 451L771 451L643 451L514 451L386 451L257 451L129 451L0 451Z" fill="#242424"></path></svg>