<svg id="visual" viewBox="0 0 900 450" width="900" height="450" xmlns="http://www.w3.org/2000/svg" xmlns:xlink="http://www.w3.org/1999/xlink" version="1.1"><rect x="0" y="0" width="900" height="450" fill="#FFFFFF"></rect><defs><linearGradient id="grad1_0" x1="50%" y1="0%" x2="100%" y2="100%"><stop offset="10%" stop-color="#2e2e2e" stop-opacity="1"></stop><stop offset="90%" stop-color="#2e2e2e" stop-opacity="1"></stop></linearGradient></defs><defs><linearGradient id="grad1_1" x1="50%" y1="0%" x2="100%" y2="100%"><stop offset="10%" stop-color="#2e2e2e" stop-opacity="1"></stop><stop offset="90%" stop-color="#4c4c4c" stop-opacity="1"></stop></linearGradient></defs><defs><linearGradient id="grad1_2" x1="50%" y1="0%" x2="100%" y2="100%"><stop offset="10%" stop-color="#6d6d6d" stop-opacity="1"></stop><stop offset="90%" stop-color="#4c4c4c" stop-opacity="1"></stop></linearGradient></defs><defs><linearGradient id="grad1_3" x1="50%" y1="0%" x2="100%" y2="100%"><stop offset="10%" stop-color="#6d6d6d" stop-opacity="1"></stop><stop offset="90%" stop-color="#8f8f8f" stop-opacity="1"></stop></linearGradient></defs><defs><linearGradient id="grad1_4" x1="50%" y1="0%" x2="100%" y2="100%"><stop offset="10%" stop-color="#b3b3b3" stop-opacity="1"></stop><stop offset="90%" stop-color="#8f8f8f" stop-opacity="1"></stop></linearGradient></defs><defs><linearGradient id="grad1_5" x1="50%" y1="0%" x2="100%" y2="100%"><stop offset="10%" stop-color="#b3b3b3" stop-opacity="1"></stop><stop offset="90%" stop-color="#d8d8d8" stop-opacity="1"></stop></linearGradient></defs><defs><linearGradient id="grad1_6" x1="50%" y1="0%" x2="100%" y2="100%"><stop offset="10%" stop-color="#ffffff" stop-opacity="1"></stop><stop offset="90%" stop-color="#d8d8d8" stop-opacity="1"></stop></linearGradient></defs><defs><linearGradient id="grad2_0" x1="0%" y1="0%" x2="50%" y2="100%"><stop offset="10%" stop-color="#2e2e2e" stop-opacity="1"></stop><stop offset="90%" stop-color="#2e2e2e" stop-opacity="1"></stop></linearGradient></defs><defs><linearGradient id="grad2_1" x1="0%" y1="0%" x2="50%" y2="100%"><stop offset="10%" stop-color="#4c4c4c" stop-opacity="1"></stop><stop offset="90%" stop-color="#2e2e2e" stop-opacity="1"></stop></linearGradient></defs><defs><linearGradient id="grad2_2" x1="0%" y1="0%" x2="50%" y2="100%"><stop offset="10%" stop-color="#4c4c4c" stop-opacity="1"></stop><stop offset="90%" stop-color="#6d6d6d" stop-opacity="1"></stop></linearGradient></defs><defs><linearGradient id="grad2_3" x1="0%" y1="0%" x2="50%" y2="100%"><stop offset="10%" stop-color="#8f8f8f" stop-opacity="1"></stop><stop offset="90%" stop-color="#6d6d6d" stop-opacity="1"></stop></linearGradient></defs><defs><linearGradient id="grad2_4" x1="0%" y1="0%" x2="50%" y2="100%"><stop offset="10%" stop-color="#8f8f8f" stop-opacity="1"></stop><stop offset="90%" stop-color="#b3b3b3" stop-opacity="1"></stop></linearGradient></defs><defs><linearGradient id="grad2_5" x1="0%" y1="0%" x2="50%" y2="100%"><stop offset="10%" stop-color="#d8d8d8" stop-opacity="1"></stop><stop offset="90%" stop-color="#b3b3b3" stop-opacity="1"></stop></linearGradient></defs><defs><linearGradient id="grad2_6" x1="0%" y1="0%" x2="50%" y2="100%"><stop offset="10%" stop-color="#d8d8d8" stop-opacity="1"></stop><stop offset="90%" stop-color="#ffffff" stop-opacity="1"></stop></linearGradient></defs><g transform="translate(900, 0)"><path d="M0 450C-27.6 426.9 -55.2 403.8 -75.7 380.5C-96.2 357.3 -109.5 334.1 -140.4 339.1C-171.4 344.1 -220 377.4 -250 374.2C-280 370.9 -291.3 331.2 -297 297C-302.7 262.8 -302.7 234.2 -320.9 214.5C-339.2 194.7 -375.5 183.7 -393.6 163C-411.6 142.3 -411.5 111.9 -417.8 83.1C-424.2 54.3 -437.1 27.2 -450 0L0 0Z" fill="#ececec"></path><path d="M0 385.7C-23.7 365.9 -47.3 346.1 -64.9 326.2C-82.4 306.3 -93.8 286.3 -120.4 290.6C-146.9 294.9 -188.6 323.5 -214.3 320.7C-240 317.9 -249.7 283.9 -254.6 254.6C-259.4 225.3 -259.5 200.8 -275.1 183.8C-290.7 166.9 -321.9 157.5 -337.3 139.7C-352.8 122 -352.7 95.9 -358.1 71.2C-363.6 46.6 -374.6 23.3 -385.7 0L0 0Z" fill="#c6c6c6"></path><path d="M0 321.4C-19.7 304.9 -39.4 288.4 -54.1 271.8C-68.7 255.2 -78.2 238.6 -100.3 242.2C-122.4 245.8 -157.2 269.6 -178.6 267.3C-200 265 -208.1 236.5 -212.1 212.1C-216.2 187.7 -216.2 167.3 -229.2 153.2C-242.3 139.1 -268.2 131.2 -281.1 116.4C-294 101.7 -293.9 79.9 -298.4 59.4C-303 38.8 -312.2 19.4 -321.4 0L0 0Z" fill="#a1a1a1"></path><path d="M0 257.1C-15.8 243.9 -31.6 230.7 -43.3 217.5C-54.9 204.2 -62.6 190.9 -80.3 193.8C-98 196.6 -125.7 215.7 -142.9 213.8C-160 212 -166.5 189.2 -169.7 169.7C-173 150.2 -173 133.8 -183.4 122.5C-193.8 111.2 -214.6 105 -224.9 93.2C-235.2 81.3 -235.1 63.9 -238.8 47.5C-242.4 31 -249.8 15.5 -257.1 0L0 0Z" fill="#7e7e7e"></path><path d="M0 192.9C-11.8 182.9 -23.7 173 -32.4 163.1C-41.2 153.1 -46.9 143.2 -60.2 145.3C-73.5 147.5 -94.3 161.7 -107.1 160.4C-120 159 -124.8 141.9 -127.3 127.3C-129.7 112.6 -129.7 100.4 -137.5 91.9C-145.4 83.4 -160.9 78.7 -168.7 69.9C-176.4 61 -176.3 48 -179.1 35.6C-181.8 23.3 -187.3 11.6 -192.9 0L0 0Z" fill="#5c5c5c"></path><path d="M0 128.6C-7.9 122 -15.8 115.4 -21.6 108.7C-27.5 102.1 -31.3 95.4 -40.1 96.9C-49 98.3 -62.9 107.8 -71.4 106.9C-80 106 -83.2 94.6 -84.9 84.9C-86.5 75.1 -86.5 66.9 -91.7 61.3C-96.9 55.6 -107.3 52.5 -112.4 46.6C-117.6 40.7 -117.6 32 -119.4 23.7C-121.2 15.5 -124.9 7.8 -128.6 0L0 0Z" fill="#3d3d3d"></path><path d="M0 64.3C-3.9 61 -7.9 57.7 -10.8 54.4C-13.7 51 -15.6 47.7 -20.1 48.4C-24.5 49.2 -31.4 53.9 -35.7 53.5C-40 53 -41.6 47.3 -42.4 42.4C-43.2 37.5 -43.2 33.5 -45.8 30.6C-48.5 27.8 -53.6 26.2 -56.2 23.3C-58.8 20.3 -58.8 16 -59.7 11.9C-60.6 7.8 -62.4 3.9 -64.3 0L0 0Z" fill="#2e2e2e"></path></g><g transform="translate(0, 450)"><path d="M0 -450C29.9 -449.3 59.8 -448.6 87.8 -441.4C115.8 -434.1 141.8 -420.2 168.4 -406.5C195 -392.8 222.1 -379.4 235 -351.7C247.9 -324.1 246.4 -282.2 256.7 -256.7C266.9 -231.2 288.8 -222 309.3 -206.7C329.8 -191.4 348.8 -169.9 352.9 -146.2C357 -122.4 346.3 -96.4 359.9 -71.6C373.6 -46.8 411.8 -23.4 450 0L0 0Z" fill="#ececec"></path><path d="M0 -385.7C25.6 -385.1 51.3 -384.5 75.2 -378.3C99.2 -372.1 121.5 -360.2 144.3 -348.4C167.1 -336.7 190.4 -325.2 201.4 -301.5C212.5 -277.8 211.2 -241.9 220 -220C228.8 -198.1 247.6 -190.3 265.1 -177.1C282.7 -164 299 -145.7 302.5 -125.3C306 -104.9 296.8 -82.6 308.5 -61.4C320.3 -40.2 353 -20.1 385.7 0L0 0Z" fill="#c6c6c6"></path><path d="M0 -321.4C21.4 -320.9 42.7 -320.5 62.7 -315.3C82.7 -310 101.3 -300.1 120.3 -290.4C139.3 -280.6 158.7 -271 167.9 -251.2C177.1 -231.5 176 -201.6 183.3 -183.3C190.7 -165.1 206.3 -158.6 220.9 -147.6C235.6 -136.7 249.1 -121.4 252.1 -104.4C255 -87.5 247.3 -68.8 257.1 -51.1C266.9 -33.5 294.2 -16.7 321.4 0L0 0Z" fill="#a1a1a1"></path><path d="M0 -257.1C17.1 -256.8 34.2 -256.4 50.2 -252.2C66.1 -248 81 -240.1 96.2 -232.3C111.4 -224.5 126.9 -216.8 134.3 -201C141.6 -185.2 140.8 -161.3 146.7 -146.7C152.5 -132.1 165 -126.8 176.7 -118.1C188.4 -109.4 199.3 -97.1 201.7 -83.5C204 -70 197.9 -55.1 205.7 -40.9C213.5 -26.8 235.3 -13.4 257.1 0L0 0Z" fill="#7e7e7e"></path><path d="M0 -192.9C12.8 -192.6 25.6 -192.3 37.6 -189.2C49.6 -186 60.8 -180.1 72.2 -174.2C83.6 -168.4 95.2 -162.6 100.7 -150.7C106.2 -138.9 105.6 -120.9 110 -110C114.4 -99.1 123.8 -95.1 132.6 -88.6C141.3 -82 149.5 -72.8 151.3 -62.7C153 -52.5 148.4 -41.3 154.3 -30.7C160.1 -20.1 176.5 -10 192.9 0L0 0Z" fill="#5c5c5c"></path><path d="M0 -128.6C8.5 -128.4 17.1 -128.2 25.1 -126.1C33.1 -124 40.5 -120.1 48.1 -116.1C55.7 -112.2 63.5 -108.4 67.1 -100.5C70.8 -92.6 70.4 -80.6 73.3 -73.3C76.3 -66 82.5 -63.4 88.4 -59C94.2 -54.7 99.7 -48.6 100.8 -41.8C102 -35 98.9 -27.5 102.8 -20.5C106.8 -13.4 117.7 -6.7 128.6 0L0 0Z" fill="#3d3d3d"></path><path d="M0 -64.3C4.3 -64.2 8.5 -64.1 12.5 -63.1C16.5 -62 20.3 -60 24.1 -58.1C27.9 -56.1 31.7 -54.2 33.6 -50.2C35.4 -46.3 35.2 -40.3 36.7 -36.7C38.1 -33 41.3 -31.7 44.2 -29.5C47.1 -27.3 49.8 -24.3 50.4 -20.9C51 -17.5 49.5 -13.8 51.4 -10.2C53.4 -6.7 58.8 -3.3 64.3 0L0 0Z" fill="#2e2e2e"></path></g></svg>