<svg id="visual" viewBox="0 0 900 600" width="900" height="600" xmlns="http://www.w3.org/2000/svg" xmlns:xlink="http://www.w3.org/1999/xlink" version="1.1"><path d="M0 205L225 175L450 241L675 205L900 211L900 0L675 0L450 0L225 0L0 0Z" fill="#242424"></path><path d="M0 325L225 319L450 349L675 289L900 313L900 209L675 203L450 239L225 173L0 203Z" fill="#303030"></path><path d="M0 403L225 379L450 421L675 385L900 367L900 311L675 287L450 347L225 317L0 323Z" fill="#3d3d3d"></path><path d="M0 547L225 523L450 517L675 553L900 547L900 365L675 383L450 419L225 377L0 401Z" fill="#4a4a4a"></path><path d="M0 601L225 601L450 601L675 601L900 601L900 545L675 551L450 515L225 521L0 545Z" fill="#575757"></path></svg>